<svg xmlns="http://www.w3.org/2000/svg" width="96" viewBox="0 0 96 96" xml:space="preserve">
<path fill="#F9D500" stroke="#000" d="M40.065681 66.105003c-1.917831 3.340752-3.673069 6.352623-5.867435 10.118012C23.447977 58.084454 12.950115 40.371769 1.98484 21.870432c5.881175 0 10.818139-.230108 15.70781.149282 1.353226.104998 2.95573 1.786778 3.777376 3.147545 4.18597 6.932572 8.15329 13.997174 12.539587 21.609902 2.151886-3.30748 3.975189-6.109921 6.169434-9.48251 2.622356 4.449741 5.117302 8.30537 7.157425 12.38826.570507 1.141762.21178 3.165188-.431866 4.419121-2.044991 3.983993-4.425495 7.795761-6.838925 12.002971zM80.422623 47.446392c-5.454171 9.330643-10.704583 18.356266-16.466164 28.260624-2.627201-4.640991-5.049377-8.654968-7.142403-12.833801-.434517-.867539.058953-2.50932.620198-3.518826 6.449833-11.601322 12.920856-23.192947 19.6142-34.654022.794762-1.360878 2.884758-2.59861 4.476105-2.73884 4.279121-.377081 8.613365-.1288 13.769127-.1288-5.097664 8.796093-9.882485 17.052371-14.871063 25.613665z"/></svg>